<mxfile host="app.diagrams.net" modified="2023-07-24T10:15:39.315Z" agent="Mozilla/5.0 (Windows NT 10.0; Win64; x64) AppleWebKit/537.36 (KHTML, like Gecko) Chrome/114.0.0.0 Safari/537.36" etag="kpfUhGJr6wmkx9jqm6ns" version="21.6.5" type="device">
  <diagram name="Page-1" id="x5GNLbjLhIAQJrSCik24">
    <mxGraphModel dx="2049" dy="1056" grid="1" gridSize="10" guides="1" tooltips="1" connect="1" arrows="1" fold="1" page="1" pageScale="1" pageWidth="1100" pageHeight="850" math="0" shadow="0">
      <root>
        <mxCell id="0" />
        <mxCell id="1" parent="0" />
        <mxCell id="OcgmKb8ZDw_zryUmYBEP-2" value="" style="edgeStyle=orthogonalEdgeStyle;rounded=0;orthogonalLoop=1;jettySize=auto;html=1;" edge="1" parent="1" source="d35V8mpCLJeYDRfa0QBV-1" target="d35V8mpCLJeYDRfa0QBV-5">
          <mxGeometry relative="1" as="geometry" />
        </mxCell>
        <mxCell id="d35V8mpCLJeYDRfa0QBV-1" value="&lt;font style=&quot;font-size: 16px;&quot;&gt;Start&lt;/font&gt;" style="ellipse;whiteSpace=wrap;html=1;" parent="1" vertex="1">
          <mxGeometry x="300" width="120" height="70" as="geometry" />
        </mxCell>
        <mxCell id="OcgmKb8ZDw_zryUmYBEP-3" value="" style="edgeStyle=orthogonalEdgeStyle;rounded=0;orthogonalLoop=1;jettySize=auto;html=1;" edge="1" parent="1" source="d35V8mpCLJeYDRfa0QBV-5" target="d35V8mpCLJeYDRfa0QBV-6">
          <mxGeometry relative="1" as="geometry" />
        </mxCell>
        <mxCell id="d35V8mpCLJeYDRfa0QBV-5" value="&lt;font style=&quot;font-size: 16px;&quot;&gt;Receive Application&lt;/font&gt;" style="rounded=1;whiteSpace=wrap;html=1;fillColor=#46E83A;strokeColor=#20B334;" parent="1" vertex="1">
          <mxGeometry x="220" y="120" width="280" height="60" as="geometry" />
        </mxCell>
        <mxCell id="OcgmKb8ZDw_zryUmYBEP-4" value="" style="edgeStyle=orthogonalEdgeStyle;rounded=0;orthogonalLoop=1;jettySize=auto;html=1;" edge="1" parent="1" source="d35V8mpCLJeYDRfa0QBV-6" target="d35V8mpCLJeYDRfa0QBV-12">
          <mxGeometry relative="1" as="geometry" />
        </mxCell>
        <mxCell id="OcgmKb8ZDw_zryUmYBEP-6" value="" style="edgeStyle=orthogonalEdgeStyle;rounded=0;orthogonalLoop=1;jettySize=auto;html=1;" edge="1" parent="1" source="d35V8mpCLJeYDRfa0QBV-6" target="OcgmKb8ZDw_zryUmYBEP-5">
          <mxGeometry relative="1" as="geometry" />
        </mxCell>
        <mxCell id="d35V8mpCLJeYDRfa0QBV-6" value="&lt;font style=&quot;font-size: 16px;&quot;&gt;Check Eligibility criteria.&lt;/font&gt;" style="rhombus;whiteSpace=wrap;html=1;fillColor=#f8cecc;strokeColor=#b85450;" parent="1" vertex="1">
          <mxGeometry x="252.5" y="230" width="215" height="120" as="geometry" />
        </mxCell>
        <mxCell id="OcgmKb8ZDw_zryUmYBEP-8" value="" style="edgeStyle=orthogonalEdgeStyle;rounded=0;orthogonalLoop=1;jettySize=auto;html=1;" edge="1" parent="1" source="d35V8mpCLJeYDRfa0QBV-7" target="d35V8mpCLJeYDRfa0QBV-9">
          <mxGeometry relative="1" as="geometry" />
        </mxCell>
        <mxCell id="d35V8mpCLJeYDRfa0QBV-7" value="&lt;font style=&quot;font-size: 16px;&quot;&gt;Entrance Test.&lt;/font&gt;" style="rounded=1;whiteSpace=wrap;html=1;fillColor=#dae8fc;strokeColor=#6c8ebf;" parent="1" vertex="1">
          <mxGeometry x="230" y="480" width="260" height="60" as="geometry" />
        </mxCell>
        <mxCell id="OcgmKb8ZDw_zryUmYBEP-9" value="" style="edgeStyle=orthogonalEdgeStyle;rounded=0;orthogonalLoop=1;jettySize=auto;html=1;" edge="1" parent="1" source="d35V8mpCLJeYDRfa0QBV-9" target="d35V8mpCLJeYDRfa0QBV-13">
          <mxGeometry relative="1" as="geometry" />
        </mxCell>
        <mxCell id="OcgmKb8ZDw_zryUmYBEP-21" value="" style="edgeStyle=orthogonalEdgeStyle;rounded=0;orthogonalLoop=1;jettySize=auto;html=1;" edge="1" parent="1" source="d35V8mpCLJeYDRfa0QBV-9" target="d35V8mpCLJeYDRfa0QBV-18">
          <mxGeometry relative="1" as="geometry" />
        </mxCell>
        <mxCell id="d35V8mpCLJeYDRfa0QBV-9" value="&lt;font style=&quot;font-size: 16px;&quot;&gt;Entrance test Result&lt;/font&gt;" style="rhombus;whiteSpace=wrap;html=1;fillColor=#f8cecc;strokeColor=#b85450;" parent="1" vertex="1">
          <mxGeometry x="264.38" y="560" width="190" height="120" as="geometry" />
        </mxCell>
        <mxCell id="d35V8mpCLJeYDRfa0QBV-12" value="&lt;font style=&quot;font-size: 16px;&quot;&gt;Application Rejected.&lt;/font&gt;" style="rounded=1;whiteSpace=wrap;html=1;fillColor=#dae8fc;strokeColor=#6c8ebf;" parent="1" vertex="1">
          <mxGeometry x="560" y="260" width="180" height="60" as="geometry" />
        </mxCell>
        <mxCell id="d35V8mpCLJeYDRfa0QBV-13" value="&lt;font style=&quot;font-size: 16px;&quot;&gt;Failed&lt;/font&gt;" style="rounded=1;whiteSpace=wrap;html=1;fillColor=#dae8fc;strokeColor=#6c8ebf;" parent="1" vertex="1">
          <mxGeometry x="269.38" y="720" width="180" height="60" as="geometry" />
        </mxCell>
        <mxCell id="OcgmKb8ZDw_zryUmYBEP-22" value="" style="edgeStyle=orthogonalEdgeStyle;rounded=0;orthogonalLoop=1;jettySize=auto;html=1;" edge="1" parent="1" source="d35V8mpCLJeYDRfa0QBV-18" target="OcgmKb8ZDw_zryUmYBEP-12">
          <mxGeometry relative="1" as="geometry" />
        </mxCell>
        <mxCell id="OcgmKb8ZDw_zryUmYBEP-23" value="" style="edgeStyle=orthogonalEdgeStyle;rounded=0;orthogonalLoop=1;jettySize=auto;html=1;" edge="1" parent="1" source="d35V8mpCLJeYDRfa0QBV-18" target="OcgmKb8ZDw_zryUmYBEP-16">
          <mxGeometry relative="1" as="geometry" />
        </mxCell>
        <mxCell id="d35V8mpCLJeYDRfa0QBV-18" value="&lt;font style=&quot;font-size: 16px;&quot;&gt;Interview with Interviewer&lt;/font&gt;" style="rhombus;whiteSpace=wrap;html=1;fillColor=#f8cecc;strokeColor=#b85450;" parent="1" vertex="1">
          <mxGeometry x="550" y="550" width="212.5" height="140" as="geometry" />
        </mxCell>
        <mxCell id="d35V8mpCLJeYDRfa0QBV-20" value="&lt;font style=&quot;font-size: 16px;&quot;&gt;Not Selected&lt;/font&gt;" style="rounded=1;whiteSpace=wrap;html=1;fillColor=#dae8fc;strokeColor=#6c8ebf;" parent="1" vertex="1">
          <mxGeometry x="822.5" y="730" width="180" height="60" as="geometry" />
        </mxCell>
        <mxCell id="OcgmKb8ZDw_zryUmYBEP-26" value="" style="edgeStyle=orthogonalEdgeStyle;rounded=0;orthogonalLoop=1;jettySize=auto;html=1;" edge="1" parent="1" source="d35V8mpCLJeYDRfa0QBV-22" target="d35V8mpCLJeYDRfa0QBV-24">
          <mxGeometry relative="1" as="geometry" />
        </mxCell>
        <mxCell id="d35V8mpCLJeYDRfa0QBV-22" value="&lt;font style=&quot;font-size: 16px;&quot;&gt;Seat Allotment&lt;/font&gt;" style="rounded=1;whiteSpace=wrap;html=1;fillColor=#dae8fc;strokeColor=#6c8ebf;" parent="1" vertex="1">
          <mxGeometry x="1090" y="590" width="220" height="60" as="geometry" />
        </mxCell>
        <mxCell id="OcgmKb8ZDw_zryUmYBEP-27" value="" style="edgeStyle=orthogonalEdgeStyle;rounded=0;orthogonalLoop=1;jettySize=auto;html=1;" edge="1" parent="1" source="d35V8mpCLJeYDRfa0QBV-24" target="d35V8mpCLJeYDRfa0QBV-25">
          <mxGeometry relative="1" as="geometry" />
        </mxCell>
        <mxCell id="d35V8mpCLJeYDRfa0QBV-24" value="&lt;font style=&quot;font-size: 16px;&quot;&gt;Offer Letter.&lt;/font&gt;" style="rounded=1;whiteSpace=wrap;html=1;fillColor=#dae8fc;strokeColor=#6c8ebf;" parent="1" vertex="1">
          <mxGeometry x="1380" y="590" width="223.75" height="60" as="geometry" />
        </mxCell>
        <mxCell id="OcgmKb8ZDw_zryUmYBEP-29" value="" style="edgeStyle=orthogonalEdgeStyle;rounded=0;orthogonalLoop=1;jettySize=auto;html=1;" edge="1" parent="1" source="d35V8mpCLJeYDRfa0QBV-25" target="OcgmKb8ZDw_zryUmYBEP-28">
          <mxGeometry relative="1" as="geometry" />
        </mxCell>
        <mxCell id="d35V8mpCLJeYDRfa0QBV-25" value="&lt;font style=&quot;font-size: 16px;&quot;&gt;Acceptance Letter.&lt;/font&gt;" style="rounded=1;whiteSpace=wrap;html=1;fillColor=#dae8fc;strokeColor=#6c8ebf;" parent="1" vertex="1">
          <mxGeometry x="1650" y="590" width="220" height="60" as="geometry" />
        </mxCell>
        <mxCell id="OcgmKb8ZDw_zryUmYBEP-33" value="" style="edgeStyle=orthogonalEdgeStyle;rounded=0;orthogonalLoop=1;jettySize=auto;html=1;" edge="1" parent="1" source="d35V8mpCLJeYDRfa0QBV-27" target="d35V8mpCLJeYDRfa0QBV-28">
          <mxGeometry relative="1" as="geometry" />
        </mxCell>
        <mxCell id="d35V8mpCLJeYDRfa0QBV-27" value="&lt;font style=&quot;font-size: 16px;&quot;&gt;Document verification.&lt;/font&gt;" style="rounded=1;whiteSpace=wrap;html=1;fillColor=#dae8fc;strokeColor=#6c8ebf;" parent="1" vertex="1">
          <mxGeometry x="1910" y="730" width="220" height="60" as="geometry" />
        </mxCell>
        <mxCell id="OcgmKb8ZDw_zryUmYBEP-37" value="" style="edgeStyle=orthogonalEdgeStyle;rounded=0;orthogonalLoop=1;jettySize=auto;html=1;" edge="1" parent="1" source="d35V8mpCLJeYDRfa0QBV-28" target="OcgmKb8ZDw_zryUmYBEP-36">
          <mxGeometry relative="1" as="geometry" />
        </mxCell>
        <mxCell id="d35V8mpCLJeYDRfa0QBV-28" value="&lt;font style=&quot;font-size: 16px;&quot;&gt;Final Admission.&lt;/font&gt;" style="rounded=1;whiteSpace=wrap;html=1;fillColor=#dae8fc;strokeColor=#6c8ebf;" parent="1" vertex="1">
          <mxGeometry x="1910" y="830" width="220" height="60" as="geometry" />
        </mxCell>
        <mxCell id="d35V8mpCLJeYDRfa0QBV-29" value="&lt;font style=&quot;font-size: 16px;&quot;&gt;END&lt;/font&gt;" style="ellipse;whiteSpace=wrap;html=1;" parent="1" vertex="1">
          <mxGeometry x="290" y="1710" width="120" height="70" as="geometry" />
        </mxCell>
        <mxCell id="OcgmKb8ZDw_zryUmYBEP-7" value="" style="edgeStyle=orthogonalEdgeStyle;rounded=0;orthogonalLoop=1;jettySize=auto;html=1;" edge="1" parent="1" source="OcgmKb8ZDw_zryUmYBEP-5" target="d35V8mpCLJeYDRfa0QBV-7">
          <mxGeometry relative="1" as="geometry" />
        </mxCell>
        <mxCell id="OcgmKb8ZDw_zryUmYBEP-5" value="&lt;font style=&quot;font-size: 16px;&quot;&gt;Schedule Entrance Examination.&lt;/font&gt;" style="rounded=1;whiteSpace=wrap;html=1;fillColor=#dae8fc;strokeColor=#6c8ebf;" vertex="1" parent="1">
          <mxGeometry x="232.5" y="380" width="255" height="60" as="geometry" />
        </mxCell>
        <mxCell id="OcgmKb8ZDw_zryUmYBEP-20" value="" style="edgeStyle=orthogonalEdgeStyle;rounded=0;orthogonalLoop=1;jettySize=auto;html=1;" edge="1" parent="1" source="OcgmKb8ZDw_zryUmYBEP-12" target="d35V8mpCLJeYDRfa0QBV-20">
          <mxGeometry relative="1" as="geometry" />
        </mxCell>
        <mxCell id="OcgmKb8ZDw_zryUmYBEP-24" value="" style="edgeStyle=orthogonalEdgeStyle;rounded=0;orthogonalLoop=1;jettySize=auto;html=1;" edge="1" parent="1" source="OcgmKb8ZDw_zryUmYBEP-12" target="d35V8mpCLJeYDRfa0QBV-22">
          <mxGeometry relative="1" as="geometry" />
        </mxCell>
        <mxCell id="OcgmKb8ZDw_zryUmYBEP-12" value="&lt;font style=&quot;font-size: 16px;&quot;&gt;Merit List Preparation.&lt;/font&gt;&lt;span style=&quot;font-size: 16px;&quot;&gt;&lt;/span&gt;" style="rhombus;whiteSpace=wrap;html=1;fillColor=#f8cecc;strokeColor=#b85450;" vertex="1" parent="1">
          <mxGeometry x="820" y="555" width="185" height="130" as="geometry" />
        </mxCell>
        <mxCell id="OcgmKb8ZDw_zryUmYBEP-16" value="&lt;font style=&quot;font-size: 16px;&quot;&gt;Not Selected&lt;/font&gt;" style="rounded=1;whiteSpace=wrap;html=1;fillColor=#dae8fc;strokeColor=#6c8ebf;" vertex="1" parent="1">
          <mxGeometry x="566.25" y="730" width="180" height="60" as="geometry" />
        </mxCell>
        <mxCell id="OcgmKb8ZDw_zryUmYBEP-30" value="" style="edgeStyle=orthogonalEdgeStyle;rounded=0;orthogonalLoop=1;jettySize=auto;html=1;" edge="1" parent="1" source="OcgmKb8ZDw_zryUmYBEP-28" target="d35V8mpCLJeYDRfa0QBV-27">
          <mxGeometry relative="1" as="geometry" />
        </mxCell>
        <mxCell id="OcgmKb8ZDw_zryUmYBEP-35" value="" style="edgeStyle=orthogonalEdgeStyle;rounded=0;orthogonalLoop=1;jettySize=auto;html=1;" edge="1" parent="1" source="OcgmKb8ZDw_zryUmYBEP-28" target="OcgmKb8ZDw_zryUmYBEP-34">
          <mxGeometry relative="1" as="geometry" />
        </mxCell>
        <mxCell id="OcgmKb8ZDw_zryUmYBEP-28" value="&lt;font style=&quot;font-size: 16px;&quot;&gt;Pay Admission Fee&lt;/font&gt;" style="rhombus;whiteSpace=wrap;html=1;fillColor=#f8cecc;strokeColor=#b85450;" vertex="1" parent="1">
          <mxGeometry x="1930" y="550" width="180" height="140" as="geometry" />
        </mxCell>
        <mxCell id="OcgmKb8ZDw_zryUmYBEP-34" value="&lt;font style=&quot;font-size: 16px;&quot;&gt;Admission Cancelled&lt;/font&gt;" style="rounded=1;whiteSpace=wrap;html=1;fillColor=#dae8fc;strokeColor=#6c8ebf;" vertex="1" parent="1">
          <mxGeometry x="2180" y="585" width="270" height="70" as="geometry" />
        </mxCell>
        <mxCell id="OcgmKb8ZDw_zryUmYBEP-36" value="&lt;font style=&quot;font-size: 16px;&quot;&gt;END&lt;/font&gt;" style="ellipse;whiteSpace=wrap;html=1;" vertex="1" parent="1">
          <mxGeometry x="1960" y="930" width="120" height="80" as="geometry" />
        </mxCell>
        <mxCell id="OcgmKb8ZDw_zryUmYBEP-38" value="&lt;font style=&quot;font-size: 15px;&quot;&gt;Yes&lt;/font&gt;" style="text;html=1;strokeColor=none;fillColor=none;align=center;verticalAlign=middle;whiteSpace=wrap;rounded=0;" vertex="1" parent="1">
          <mxGeometry x="1600" y="585" width="60" height="30" as="geometry" />
        </mxCell>
        <mxCell id="OcgmKb8ZDw_zryUmYBEP-39" value="&lt;font style=&quot;font-size: 15px;&quot;&gt;Yes&lt;/font&gt;" style="text;html=1;strokeColor=none;fillColor=none;align=center;verticalAlign=middle;whiteSpace=wrap;rounded=0;" vertex="1" parent="1">
          <mxGeometry x="1320" y="585" width="60" height="30" as="geometry" />
        </mxCell>
        <mxCell id="OcgmKb8ZDw_zryUmYBEP-40" value="&lt;font style=&quot;font-size: 15px;&quot;&gt;Yes&lt;/font&gt;" style="text;html=1;strokeColor=none;fillColor=none;align=center;verticalAlign=middle;whiteSpace=wrap;rounded=0;" vertex="1" parent="1">
          <mxGeometry x="1020" y="580" width="60" height="30" as="geometry" />
        </mxCell>
        <mxCell id="OcgmKb8ZDw_zryUmYBEP-41" value="&lt;font style=&quot;font-size: 15px;&quot;&gt;Yes&lt;/font&gt;" style="text;html=1;strokeColor=none;fillColor=none;align=center;verticalAlign=middle;whiteSpace=wrap;rounded=0;" vertex="1" parent="1">
          <mxGeometry x="760" y="580" width="60" height="30" as="geometry" />
        </mxCell>
        <mxCell id="OcgmKb8ZDw_zryUmYBEP-42" value="&lt;font style=&quot;font-size: 15px;&quot;&gt;Yes&lt;/font&gt;" style="text;html=1;strokeColor=none;fillColor=none;align=center;verticalAlign=middle;whiteSpace=wrap;rounded=0;" vertex="1" parent="1">
          <mxGeometry x="487.5" y="585" width="60" height="30" as="geometry" />
        </mxCell>
        <mxCell id="OcgmKb8ZDw_zryUmYBEP-43" value="&lt;font style=&quot;font-size: 15px;&quot;&gt;Yes&lt;/font&gt;" style="text;html=1;strokeColor=none;fillColor=none;align=center;verticalAlign=middle;whiteSpace=wrap;rounded=0;" vertex="1" parent="1">
          <mxGeometry x="370" y="550" width="60" height="30" as="geometry" />
        </mxCell>
        <mxCell id="OcgmKb8ZDw_zryUmYBEP-44" value="&lt;font style=&quot;font-size: 15px;&quot;&gt;Yes&lt;/font&gt;" style="text;html=1;strokeColor=none;fillColor=none;align=center;verticalAlign=middle;whiteSpace=wrap;rounded=0;" vertex="1" parent="1">
          <mxGeometry x="370" y="450" width="60" height="30" as="geometry" />
        </mxCell>
        <mxCell id="OcgmKb8ZDw_zryUmYBEP-45" value="&lt;font style=&quot;font-size: 15px;&quot;&gt;Yes&lt;/font&gt;" style="text;html=1;strokeColor=none;fillColor=none;align=center;verticalAlign=middle;whiteSpace=wrap;rounded=0;" vertex="1" parent="1">
          <mxGeometry x="370" y="340" width="60" height="30" as="geometry" />
        </mxCell>
        <mxCell id="OcgmKb8ZDw_zryUmYBEP-46" value="&lt;font style=&quot;font-size: 15px;&quot;&gt;Yes&lt;/font&gt;" style="text;html=1;strokeColor=none;fillColor=none;align=center;verticalAlign=middle;whiteSpace=wrap;rounded=0;" vertex="1" parent="1">
          <mxGeometry x="370" y="200" width="60" height="30" as="geometry" />
        </mxCell>
        <mxCell id="OcgmKb8ZDw_zryUmYBEP-47" value="&lt;font style=&quot;font-size: 15px;&quot;&gt;Yes&lt;/font&gt;" style="text;html=1;strokeColor=none;fillColor=none;align=center;verticalAlign=middle;whiteSpace=wrap;rounded=0;" vertex="1" parent="1">
          <mxGeometry x="360" y="90" width="60" height="30" as="geometry" />
        </mxCell>
        <mxCell id="OcgmKb8ZDw_zryUmYBEP-48" value="&lt;font style=&quot;font-size: 15px;&quot;&gt;Yes&lt;/font&gt;" style="text;html=1;strokeColor=none;fillColor=none;align=center;verticalAlign=middle;whiteSpace=wrap;rounded=0;" vertex="1" parent="1">
          <mxGeometry x="1880" y="585" width="60" height="30" as="geometry" />
        </mxCell>
        <mxCell id="OcgmKb8ZDw_zryUmYBEP-49" value="&lt;font style=&quot;font-size: 15px;&quot;&gt;Yes&lt;/font&gt;" style="text;html=1;strokeColor=none;fillColor=none;align=center;verticalAlign=middle;whiteSpace=wrap;rounded=0;" vertex="1" parent="1">
          <mxGeometry x="2020" y="690" width="60" height="30" as="geometry" />
        </mxCell>
        <mxCell id="OcgmKb8ZDw_zryUmYBEP-50" value="&lt;font style=&quot;font-size: 15px;&quot;&gt;Yes&lt;/font&gt;" style="text;html=1;strokeColor=none;fillColor=none;align=center;verticalAlign=middle;whiteSpace=wrap;rounded=0;" vertex="1" parent="1">
          <mxGeometry x="2050" y="900" width="60" height="30" as="geometry" />
        </mxCell>
        <mxCell id="OcgmKb8ZDw_zryUmYBEP-51" value="&lt;font style=&quot;font-size: 15px;&quot;&gt;Yes&lt;/font&gt;" style="text;html=1;strokeColor=none;fillColor=none;align=center;verticalAlign=middle;whiteSpace=wrap;rounded=0;" vertex="1" parent="1">
          <mxGeometry x="2030" y="800" width="60" height="30" as="geometry" />
        </mxCell>
        <mxCell id="OcgmKb8ZDw_zryUmYBEP-56" value="&lt;font style=&quot;font-size: 16px;&quot;&gt;No&lt;/font&gt;" style="text;html=1;strokeColor=none;fillColor=none;align=center;verticalAlign=middle;whiteSpace=wrap;rounded=0;" vertex="1" parent="1">
          <mxGeometry x="2120" y="580" width="60" height="30" as="geometry" />
        </mxCell>
        <mxCell id="OcgmKb8ZDw_zryUmYBEP-57" value="&lt;font style=&quot;font-size: 16px;&quot;&gt;No&lt;/font&gt;" style="text;html=1;strokeColor=none;fillColor=none;align=center;verticalAlign=middle;whiteSpace=wrap;rounded=0;" vertex="1" parent="1">
          <mxGeometry x="930" y="690" width="60" height="30" as="geometry" />
        </mxCell>
        <mxCell id="OcgmKb8ZDw_zryUmYBEP-58" value="&lt;font style=&quot;font-size: 16px;&quot;&gt;No&lt;/font&gt;" style="text;html=1;strokeColor=none;fillColor=none;align=center;verticalAlign=middle;whiteSpace=wrap;rounded=0;" vertex="1" parent="1">
          <mxGeometry x="670" y="690" width="60" height="30" as="geometry" />
        </mxCell>
        <mxCell id="OcgmKb8ZDw_zryUmYBEP-59" value="&lt;font style=&quot;font-size: 16px;&quot;&gt;No&lt;/font&gt;" style="text;html=1;strokeColor=none;fillColor=none;align=center;verticalAlign=middle;whiteSpace=wrap;rounded=0;" vertex="1" parent="1">
          <mxGeometry x="370" y="680" width="60" height="30" as="geometry" />
        </mxCell>
        <mxCell id="OcgmKb8ZDw_zryUmYBEP-60" value="&lt;font style=&quot;font-size: 16px;&quot;&gt;No&lt;/font&gt;" style="text;html=1;strokeColor=none;fillColor=none;align=center;verticalAlign=middle;whiteSpace=wrap;rounded=0;" vertex="1" parent="1">
          <mxGeometry x="490" y="260" width="60" height="30" as="geometry" />
        </mxCell>
        <mxCell id="OcgmKb8ZDw_zryUmYBEP-61" value="&lt;span style=&quot;font-size: 16px;&quot;&gt;3&lt;/span&gt;" style="text;html=1;strokeColor=none;fillColor=none;align=center;verticalAlign=middle;whiteSpace=wrap;rounded=0;" vertex="1" parent="1">
          <mxGeometry x="480" y="305" width="80" height="30" as="geometry" />
        </mxCell>
        <mxCell id="OcgmKb8ZDw_zryUmYBEP-62" value="&lt;font style=&quot;font-size: 16px;&quot;&gt;1&lt;/font&gt;" style="text;html=1;strokeColor=none;fillColor=none;align=center;verticalAlign=middle;whiteSpace=wrap;rounded=0;" vertex="1" parent="1">
          <mxGeometry x="290" y="90" width="80" height="30" as="geometry" />
        </mxCell>
        <mxCell id="OcgmKb8ZDw_zryUmYBEP-63" value="&lt;font style=&quot;font-size: 16px;&quot;&gt;5&lt;/font&gt;" style="text;html=1;strokeColor=none;fillColor=none;align=center;verticalAlign=middle;whiteSpace=wrap;rounded=0;" vertex="1" parent="1">
          <mxGeometry x="290" y="450" width="80" height="30" as="geometry" />
        </mxCell>
        <mxCell id="OcgmKb8ZDw_zryUmYBEP-65" value="&lt;font style=&quot;font-size: 16px;&quot;&gt;2&lt;/font&gt;" style="text;html=1;strokeColor=none;fillColor=none;align=center;verticalAlign=middle;whiteSpace=wrap;rounded=0;" vertex="1" parent="1">
          <mxGeometry x="290" y="200" width="80" height="30" as="geometry" />
        </mxCell>
        <mxCell id="OcgmKb8ZDw_zryUmYBEP-66" value="&lt;font style=&quot;font-size: 16px;&quot;&gt;18&lt;/font&gt;" style="text;html=1;strokeColor=none;fillColor=none;align=center;verticalAlign=middle;whiteSpace=wrap;rounded=0;" vertex="1" parent="1">
          <mxGeometry x="1960" y="800" width="80" height="30" as="geometry" />
        </mxCell>
        <mxCell id="OcgmKb8ZDw_zryUmYBEP-67" value="&lt;font style=&quot;font-size: 16px;&quot;&gt;11&lt;/font&gt;" style="text;html=1;strokeColor=none;fillColor=none;align=center;verticalAlign=middle;whiteSpace=wrap;rounded=0;" vertex="1" parent="1">
          <mxGeometry x="840" y="690" width="80" height="30" as="geometry" />
        </mxCell>
        <mxCell id="OcgmKb8ZDw_zryUmYBEP-68" value="&lt;font style=&quot;font-size: 16px;&quot;&gt;19&lt;/font&gt;" style="text;html=1;strokeColor=none;fillColor=none;align=center;verticalAlign=middle;whiteSpace=wrap;rounded=0;" vertex="1" parent="1">
          <mxGeometry x="1960" y="900" width="80" height="30" as="geometry" />
        </mxCell>
        <mxCell id="OcgmKb8ZDw_zryUmYBEP-69" value="&lt;font style=&quot;font-size: 16px;&quot;&gt;8&lt;/font&gt;" style="text;html=1;strokeColor=none;fillColor=none;align=center;verticalAlign=middle;whiteSpace=wrap;rounded=0;" vertex="1" parent="1">
          <mxGeometry x="477.5" y="625" width="80" height="30" as="geometry" />
        </mxCell>
        <mxCell id="OcgmKb8ZDw_zryUmYBEP-70" value="&lt;font style=&quot;font-size: 16px;&quot;&gt;14&lt;/font&gt;" style="text;html=1;strokeColor=none;fillColor=none;align=center;verticalAlign=middle;whiteSpace=wrap;rounded=0;" vertex="1" parent="1">
          <mxGeometry x="1590" y="620" width="80" height="30" as="geometry" />
        </mxCell>
        <mxCell id="OcgmKb8ZDw_zryUmYBEP-71" value="&lt;font style=&quot;font-size: 16px;&quot;&gt;4&lt;/font&gt;" style="text;html=1;strokeColor=none;fillColor=none;align=center;verticalAlign=middle;whiteSpace=wrap;rounded=0;" vertex="1" parent="1">
          <mxGeometry x="290" y="350" width="80" height="30" as="geometry" />
        </mxCell>
        <mxCell id="OcgmKb8ZDw_zryUmYBEP-72" value="&lt;font style=&quot;font-size: 16px;&quot;&gt;7&lt;/font&gt;" style="text;html=1;strokeColor=none;fillColor=none;align=center;verticalAlign=middle;whiteSpace=wrap;rounded=0;" vertex="1" parent="1">
          <mxGeometry x="290" y="680" width="80" height="30" as="geometry" />
        </mxCell>
        <mxCell id="OcgmKb8ZDw_zryUmYBEP-73" value="&lt;font style=&quot;font-size: 16px;&quot;&gt;6&lt;/font&gt;" style="text;html=1;strokeColor=none;fillColor=none;align=center;verticalAlign=middle;whiteSpace=wrap;rounded=0;" vertex="1" parent="1">
          <mxGeometry x="290" y="540" width="80" height="30" as="geometry" />
        </mxCell>
        <mxCell id="OcgmKb8ZDw_zryUmYBEP-74" value="&lt;font style=&quot;font-size: 16px;&quot;&gt;16&lt;/font&gt;" style="text;html=1;strokeColor=none;fillColor=none;align=center;verticalAlign=middle;whiteSpace=wrap;rounded=0;" vertex="1" parent="1">
          <mxGeometry x="2110" y="615" width="80" height="30" as="geometry" />
        </mxCell>
        <mxCell id="OcgmKb8ZDw_zryUmYBEP-75" value="&lt;font style=&quot;font-size: 16px;&quot;&gt;12&lt;/font&gt;" style="text;html=1;strokeColor=none;fillColor=none;align=center;verticalAlign=middle;whiteSpace=wrap;rounded=0;" vertex="1" parent="1">
          <mxGeometry x="1010" y="625" width="80" height="30" as="geometry" />
        </mxCell>
        <mxCell id="OcgmKb8ZDw_zryUmYBEP-76" value="&lt;font style=&quot;font-size: 16px;&quot;&gt;13&lt;/font&gt;" style="text;html=1;strokeColor=none;fillColor=none;align=center;verticalAlign=middle;whiteSpace=wrap;rounded=0;" vertex="1" parent="1">
          <mxGeometry x="1310" y="625" width="80" height="30" as="geometry" />
        </mxCell>
        <mxCell id="OcgmKb8ZDw_zryUmYBEP-77" value="&lt;font style=&quot;font-size: 16px;&quot;&gt;17&lt;/font&gt;" style="text;html=1;strokeColor=none;fillColor=none;align=center;verticalAlign=middle;whiteSpace=wrap;rounded=0;" vertex="1" parent="1">
          <mxGeometry x="1960" y="700" width="80" height="30" as="geometry" />
        </mxCell>
        <mxCell id="OcgmKb8ZDw_zryUmYBEP-78" value="&lt;font style=&quot;font-size: 16px;&quot;&gt;9&lt;/font&gt;" style="text;html=1;strokeColor=none;fillColor=none;align=center;verticalAlign=middle;whiteSpace=wrap;rounded=0;" vertex="1" parent="1">
          <mxGeometry x="590" y="690" width="80" height="30" as="geometry" />
        </mxCell>
        <mxCell id="OcgmKb8ZDw_zryUmYBEP-79" value="&lt;font style=&quot;font-size: 16px;&quot;&gt;15&lt;/font&gt;" style="text;html=1;strokeColor=none;fillColor=none;align=center;verticalAlign=middle;whiteSpace=wrap;rounded=0;" vertex="1" parent="1">
          <mxGeometry x="1870" y="620" width="80" height="30" as="geometry" />
        </mxCell>
        <mxCell id="OcgmKb8ZDw_zryUmYBEP-80" value="&lt;font style=&quot;font-size: 16px;&quot;&gt;10&lt;br&gt;&lt;/font&gt;" style="text;html=1;strokeColor=none;fillColor=none;align=center;verticalAlign=middle;whiteSpace=wrap;rounded=0;" vertex="1" parent="1">
          <mxGeometry x="750" y="630" width="80" height="30" as="geometry" />
        </mxCell>
      </root>
    </mxGraphModel>
  </diagram>
</mxfile>
